<?xml version="1.0" encoding="UTF-8" standalone="no"?>
<svg
   xmlns:dc="http://purl.org/dc/elements/1.1/"
   xmlns:cc="http://creativecommons.org/ns#"
   xmlns:rdf="http://www.w3.org/1999/02/22-rdf-syntax-ns#"
   xmlns:svg="http://www.w3.org/2000/svg"
   xmlns="http://www.w3.org/2000/svg"
   xmlns:sodipodi="http://sodipodi.sourceforge.net/DTD/sodipodi-0.dtd"
   xmlns:inkscape="http://www.inkscape.org/namespaces/inkscape"
   width="1000"
   height="243.03305"
   viewBox="0 0 1000 243.03305"
   version="1.1"
   id="svg837"
   sodipodi:docname="A.svg"
   style="fill:none"
   inkscape:version="0.92.4 (5da689c313, 2019-01-14)">
  <metadata
     id="metadata843">
    <rdf:RDF>
      <cc:Work
         rdf:about="">
        <dc:format>image/svg+xml</dc:format>
        <dc:type
           rdf:resource="http://purl.org/dc/dcmitype/StillImage" />
        <dc:title></dc:title>
      </cc:Work>
    </rdf:RDF>
  </metadata>
  <defs
     id="defs841" />
  <sodipodi:namedview
     pagecolor="#ffffff"
     bordercolor="#111111"
     borderopacity="1"
     objecttolerance="10"
     gridtolerance="10"
     guidetolerance="10"
     inkscape:pageopacity="0"
     inkscape:pageshadow="2"
     inkscape:window-width="1920"
     inkscape:window-height="1017"
     id="namedview839"
     showgrid="false"
     fit-margin-top="0"
     fit-margin-left="0"
     fit-margin-right="0"
     fit-margin-bottom="0"
     inkscape:zoom="0.76990903"
     inkscape:cx="636.46825"
     inkscape:cy="23.530056"
     inkscape:window-x="1912"
     inkscape:window-y="-8"
     inkscape:window-maximized="1"
     inkscape:current-layer="svg837" />
  <path
     d="m 621.8615,103.53883 c -13.91702,0 -26.13686,6.32561 -30.8895,16.31292 l -1.35761,2.33041 -2.03675,-16.64573 h -25.79729 v 137.49662 h 27.49447 v -60.92501 l 1.69718,2.99673 c 5.09221,9.98731 17.31205,16.31292 30.8895,16.31292 26.816,0 46.84327,-20.97375 46.84327,-48.93943 0,-27.96568 -20.02727,-48.93943 -46.84327,-48.93943 z m -5.09154,72.24427 c -13.57813,0 -24.10078,-9.98798 -24.10078,-23.63766 0,-13.64968 10.18376,-23.63767 24.10078,-23.63767 13.91701,0 24.43967,10.32081 24.43967,23.63767 0,13.64968 -10.52266,23.63766 -24.43967,23.63766 z m 57.02635,-5.65997 h 27.49582 c 1.01938,5.65997 8.14835,8.98885 17.99119,8.98885 6.10958,0 12.90101,-1.66478 12.90101,-6.65843 0,-5.32647 -5.09695,-6.65843 -19.69243,-10.65362 -2.03203,-0.66564 -4.0708,-0.99846 -6.44713,-1.66478 -20.36752,-5.65929 -29.53526,-14.64814 -29.53526,-28.63064 0,-13.65036 13.23855,-28.2985 37.68362,-28.2985 23.41894,0 40.0532,11.9849 41.07259,29.62978 h -27.49649 c -0.68185,-5.99279 -8.14836,-7.65689 -12.56346,-7.65689 -5.42774,0 -11.19978,1.99759 -11.19978,6.32561 0,3.66169 3.39572,4.99365 16.29672,8.98884 3.05142,0.99846 6.44713,1.99693 10.51793,3.32888 19.34813,5.99279 28.85343,15.64728 28.85343,29.29696 0,19.30965 -20.70507,27.96568 -41.07259,27.96568 -27.49649,0.33282 -43.78646,-10.98644 -44.80517,-30.96174 z m 294.97394,-8.3232 v 37.62016 h -27.48974 v -93.88366 h 25.79526 l 1.35694,9.9873 1.35693,-1.33128 c 6.45388,-6.99125 12.90101,-10.65362 19.69243,-10.65362 4.0708,0 7.80406,1.33128 10.51793,3.32888 l -3.73326,23.63766 c -2.37632,-0.99846 -5.77203,-1.9976 -8.82345,-1.9976 -12.21916,0.33282 -18.67304,11.98558 -18.67304,33.29216 z M 831.30131,130.50537 h -23.08814 v 68.91472 h -27.48974 v -68.91472 h -16.29672 v -25.30176 h 16.29672 v -28.2985 h 27.48974 v 28.2985 h 23.08814 z m 99.11698,23.30485 c 0,-28.96414 -20.02998,-50.27139 -47.86401,-50.27139 -27.83404,0 -47.86401,20.30811 -47.86401,48.27379 0,28.63132 21.04936,49.60507 49.55849,49.60507 26.13955,0 41.41688,-17.9777 44.13075,-30.96174 l -23.76323,-2.66323 c -4.40835,6.32561 -11.87487,9.65448 -20.36752,9.65448 -15.60812,0 -21.72446,-8.65602 -22.39955,-16.31291 v -0.99914 h 68.56908 z m -68.56908,-11.31994 v -0.99847 c 0.67509,-8.3232 9.161,-14.31532 20.36752,-14.31532 12.55671,0 20.02322,7.32407 20.36752,14.31532 v 0.99847 z m -340.80255,-36.95385 -2.03675,16.64573 -1.35761,-2.33041 c -5.09154,-9.98731 -16.97248,-16.31292 -30.8895,-16.31292 -26.816,0 -46.84327,20.97375 -46.84327,48.93943 0,27.96568 20.02727,48.93943 46.84327,48.93943 13.57812,0 25.79796,-6.32561 30.8895,-16.31292 l 1.35761,-2.33041 2.03675,16.64573 h 25.79796 v -93.88366 z m -29.19232,70.24667 c -13.91702,0 -24.43967,-9.98798 -24.43967,-23.63766 0,-13.64968 10.52265,-23.63767 24.43967,-23.63767 13.57812,0 24.10078,10.32081 24.10078,23.63767 0,13.64968 -10.52266,23.63766 -24.10078,23.63766 z m -91.31022,23.63699 -64.49422,-88.22437 v 88.22437 H 308.55476 V 66.91712 h 27.83404 l 64.83447,88.22438 V 66.91712 h 27.49446 V 199.42009 Z M 222.33609,40.61649 c -2.37633,0 -4.75265,0 -7.1283,0.33289 h -0.33957 l -0.33957,-0.33289 C 194.50138,15.31439 162.93341,0 130.34673,0 97.760045,0 65.852168,15.31439 46.164398,40.94938 l -0.339436,0.33295 H 45.485526 C 43.109405,40.94938 40.733285,40.94938 38.357164,40.94938 H 23.421635 v 25.96774 l -0.339436,0.33282 C 9.1649789,73.57555 0,87.55873 0,102.87319 c 0,15.31378 9.1649789,29.29696 23.082199,35.62257 h 0.678873 v 0.66564 c 0.339436,57.26264 48.201015,103.87165 106.585658,103.87165 58.38396,0 106.24595,-46.60901 106.58552,-103.87165 v -0.66564 l 0.33889,-0.33282 c 13.9177,-6.65843 23.08274,-20.64161 23.08274,-35.62325 0,-15.31445 -9.16504,-29.29696 -23.08274,-35.62257 L 236.93225,66.5843 V 40.61649 Z M 73.998839,49.27245 C 88.93457,34.6239 109.30074,26.30083 130.34673,26.30083 c 21.04531,0 41.41215,8.32307 56.34721,22.97162 l 0.67914,0.66584 -1.01804,0.66585 c -4.0735,2.33048 -7.80743,4.6609 -11.54137,7.32427 l -0.33957,0.33296 -0.33957,-0.33296 c -9.84351,-4.99379 -25.45771,-10.65349 -43.44823,-10.65349 -17.99052,0 -33.605397,5.6597 -43.448911,10.65349 l -0.339571,0.33296 -0.339571,-0.33296 C 82.824314,55.26504 78.75081,52.60167 75.016877,50.60414 L 72.9808,49.93829 Z m 133.741091,88.89049 c 0,41.94818 -34.96301,76.23879 -77.73277,76.23879 -42.769771,0 -77.39334,-34.29061 -77.39334,-76.23879 V 72.24427 l 1.018376,0.33282 c 13.577717,3.32888 26.476899,17.9777 29.531689,21.64007 3.394362,-3.66237 19.348135,-17.97837 47.182845,-17.97837 27.83403,0 43.7878,14.64882 47.18284,17.97837 3.05479,-3.66237 15.6142,-18.31119 29.53122,-21.64007 l 1.01871,-0.33282 v 65.91867 z"
     id="path835"
     style="fill:#344bff;stroke-width:6.75091791;fill-opacity:0.94117647"
     inkscape:connector-curvature="0"
     sodipodi:nodetypes="sccccccccssssssssccssccssccssccsccsccccccscccscccccccccccccssssccscccsccsccccccsssccccccssssscccccccccccscccscccscccscccscccscccscsccccccscccccccsscccsccccc" />
</svg>
